HIERARCHY
ROOT Hips
{
 OFFSET 0.000000 0.000000 0.000000
 CHANNELS 6 Xposition Yposition Zposition Yrotation Xrotation Zrotation
 JOINT Chest
 {
  OFFSET 0.000000 9.585900 0.002600
  CHANNELS 3 Yrotation Xrotation Zrotation
  JOINT Chest2
  {
   OFFSET 0.000000 9.601200 -0.005300
   CHANNELS 3 Yrotation Xrotation Zrotation
   JOINT Chest3
   {
    OFFSET 0.000000 9.561800 0.000000
    CHANNELS 3 Yrotation Xrotation Zrotation
    JOINT Chest4
    {
     OFFSET 0.000000 9.552100 0.000000
     CHANNELS 3 Yrotation Xrotation Zrotation
     JOINT Neck
     {
      OFFSET 0.000000 14.453000 0.000000
      CHANNELS 3 Yrotation Xrotation Zrotation
      JOINT Head
      {
       OFFSET 0.000000 8.936500 -0.011300
       CHANNELS 3 Yrotation Xrotation Zrotation
       End Site
       {
        OFFSET 0.000000 17.073600 -0.006000
       }
      }
     }
     JOINT RightCollar
     {
      OFFSET -2.921100 9.558500 0.000000
      CHANNELS 3 Yrotation Xrotation Zrotation
      JOINT RightShoulder
      {
       OFFSET -13.519700 0.000000 0.000000
       CHANNELS 3 Yrotation Xrotation Zrotation
       JOINT RightElbow
       {
        OFFSET 0.000000 -29.696600 0.000000
        CHANNELS 3 Yrotation Xrotation Zrotation
        JOINT RightWrist
        {
         OFFSET 0.000000 -24.004700 0.000000
         CHANNELS 3 Yrotation Xrotation Zrotation
         End Site
         {
          OFFSET 0.000000 -17.728500 0.000000
         }
        }
       }
      }
     }
     JOINT LeftCollar
     {
      OFFSET 2.921100 9.558500 0.000000
      CHANNELS 3 Yrotation Xrotation Zrotation
      JOINT LeftShoulder
      {
       OFFSET 13.519700 0.000000 0.000000
       CHANNELS 3 Yrotation Xrotation Zrotation
       JOINT LeftElbow
       {
        OFFSET 0.000000 -29.696600 0.000000
        CHANNELS 3 Yrotation Xrotation Zrotation
        JOINT LeftWrist
        {
         OFFSET 0.000000 -24.004700 0.000000
         CHANNELS 3 Yrotation Xrotation Zrotation
         End Site
         {
          OFFSET 0.000000 -17.728500 0.000000
         }
        }
       }
      }
     }
    }
   }
  }
 }
 JOINT RightHip
 {
  OFFSET -7.771700 -0.012900 -0.001300
  CHANNELS 3 Yrotation Xrotation Zrotation
  JOINT RightKnee
  {
   OFFSET 0.000000 -40.869800 0.001200
   CHANNELS 3 Yrotation Xrotation Zrotation
   JOINT RightAnkle
   {
    OFFSET 0.000000 -39.717900 0.002100
    CHANNELS 3 Yrotation Xrotation Zrotation
    JOINT RightToe
    {
     OFFSET 0.000000 -4.965400 11.033500
     CHANNELS 3 Yrotation Xrotation Zrotation
     End Site
     {
      OFFSET 0.000000 -1.423100 5.872300
     }
    }
   }
  }
 }
 JOINT LeftHip
 {
  OFFSET 7.771700 -0.012900 -0.001300
  CHANNELS 3 Yrotation Xrotation Zrotation
  JOINT LeftKnee
  {
   OFFSET 0.000000 -40.869800 0.001200
   CHANNELS 3 Yrotation Xrotation Zrotation
   JOINT LeftAnkle
   {
    OFFSET 0.000000 -39.717900 0.002100
    CHANNELS 3 Yrotation Xrotation Zrotation
    JOINT LeftToe
    {
     OFFSET 0.000000 -4.965400 11.033500
     CHANNELS 3 Yrotation Xrotation Zrotation
     End Site
     {
      OFFSET 0.000000 -1.423100 5.872300
     }
    }
   }
  }
 }
}
MOTION
Frames: 9
Frame Time: 0.008333
0.000000 85.388000 0.000000 0.000000 -5.767877 0.000000 0.000000 11.653817 0.000000 0.000000 -5.885947 0.000000 0.000000 -0.000000 0.000000 0.000000 -0.000000 0.000000 0.000000 12.528835 0.000000 0.000000 0.711642 0.000000 0.000000 -0.000000 0.000000 0.000000 0.000000 -90.000000 0.000000 -2.309062 0.000000 0.000000 2.309062 0.000000 0.000000 -0.000000 0.000000 0.000000 -0.000000 90.000000 0.000000 -2.309062 0.000000 0.000000 2.309062 0.000000 0.000000 8.520406 0.000000 0.000000 1.905762 0.000000 -0.000000 -4.658285 0.000000 0.000000 -0.000000 0.000000 0.000000 8.520406 0.000000 0.000000 1.905762 0.000000 -0.000000 -4.658285 0.000000 0.000000 -0.000000 0.000000
-35.874939 50.656731 5.055091 166.169323 -6.738798 -0.184490 3.440882 5.498356 0.695464 0.150333 0.231985 -0.010552 0.216420 0.374648 -0.016124 3.063146 5.310433 -0.096954 1.693679 16.785941 -0.294757 3.238094 -4.597135 -1.131182 2.168455 6.129627 1.081161 -9.927180 -11.620877 -7.919664 -56.159418 -71.898807 81.352091 -2.073470 3.283591 -26.652713 -4.621221 3.422919 0.602545 21.102897 -4.039151 1.532904 60.971848 -74.522596 -83.854060 1.028477 9.070703 11.349462 -4.205468 -73.712135 -3.197573 -122.530296 83.007382 -120.965446 -2.371560 -14.629223 -0.054944 -0.307652 0.752031 -0.148435 -14.547200 -77.096982 27.781567 104.943563 78.018171 100.956635 -16.027922 -20.019798 -0.440568 -0.315251 -1.187603 -0.170111
-35.871002 50.655527 5.053953 166.143605 -6.760496 -0.201729 3.441787 5.499338 0.715198 0.122190 0.212293 -0.008876 0.215170 0.374124 -0.015306 3.068570 5.319836 -0.088885 1.715775 16.803285 -0.297798 3.249310 -4.583217 -1.128003 2.156703 6.144654 1.078040 -9.898476 -11.602234 -7.917101 -56.138945 -71.906973 81.359189 -2.099820 3.283720 -26.696009 -4.587502 3.435837 0.590491 21.128114 -4.022775 1.534284 60.969677 -74.519762 -83.843775 1.022375 9.061958 11.350066 -4.253065 -73.690820 -3.124799 -122.514784 83.005600 -120.946408 -2.361106 -14.623021 -0.058133 -0.311084 0.749539 -0.150617 -14.611290 -77.071441 27.863178 104.937614 77.997025 100.971226 -16.057648 -20.014234 -0.458644 -0.275919 -1.190187 -0.163897
-35.869117 50.654082 5.053012 166.126931 -6.780897 -0.208890 3.433153 5.499203 0.722498 0.128063 0.217061 -0.008626 0.221617 0.379247 -0.014623 3.065066 5.320295 -0.084453 1.707969 16.803966 -0.289241 3.262184 -4.563409 -1.125557 2.158937 6.150709 1.074145 -9.894267 -11.597130 -7.913698 -56.189700 -71.876803 81.391267 -2.084758 3.290917 -26.712628 -4.587905 3.425338 0.589779 21.148483 -4.007395 1.538603 61.008415 -74.524697 -83.865886 1.024660 9.065964 11.344457 -4.284318 -73.674090 -3.082333 -122.553377 83.007168 -120.985591 -2.352029 -14.617657 -0.060589 -0.317269 0.746260 -0.150471 -14.619219 -77.049345 27.884562 104.927181 77.994615 100.979287 -16.098182 -20.009713 -0.469682 -0.280935 -1.164425 -0.149990
-35.868244 50.652386 5.053351 166.114337 -6.795276 -0.212878 3.421560 5.493617 0.726190 0.145677 0.231634 -0.008732 0.214495 0.373735 -0.014840 3.012845 5.284337 -0.077930 1.748132 16.842275 -0.287837 3.278110 -4.536223 -1.119026 2.209161 6.193544 1.065675 -9.915976 -11.593024 -7.885998 -56.181822 -71.874008 81.394187 -2.072905 3.294143 -26.730557 -4.534971 3.453716 0.582032 21.159634 -3.999496 1.543832 60.993479 -74.515480 -83.847579 1.021825 9.058897 11.349386 -4.306200 -73.661613 -3.055307 -122.538140 83.002506 -120.967014 -2.339434 -14.621491 -0.062561 -0.316434 0.750316 -0.155182 -14.650814 -77.033415 27.912505 104.913342 77.984736 100.976266 -16.098881 -19.998207 -0.481867 -0.283496 -1.161292 -0.148775
-35.868235 50.650658 5.053728 166.105391 -6.811073 -0.212340 3.408576 5.490480 0.725676 0.142322 0.230746 -0.008716 0.192011 0.352856 -0.014229 3.033335 5.299668 -0.076841 1.739463 16.856224 -0.271474 3.310073 -4.497834 -1.123756 2.180497 6.202226 1.065818 -9.887032 -11.580353 -7.870372 -56.165732 -71.880427 81.383648 -2.069470 3.298565 -26.740800 -4.514448 3.469977 0.581727 21.161000 -4.005521 1.552606 61.027819 -74.510125 -83.866368 1.018801 9.053904 11.341866 -4.330954 -73.649606 -3.026836 -122.557611 83.003620 -120.994445 -2.331846 -14.622971 -0.063156 -0.321607 0.751953 -0.156583 -14.651544 -77.014886 27.907462 104.878426 77.980230 100.953674 -16.106940 -19.987091 -0.491499 -0.273169 -1.155681 -0.146563
-35.868879 50.648851 5.055123 166.101971 -6.822685 -0.209525 3.391971 5.482922 0.720864 0.140008 0.230671 -0.006685 0.203241 0.362325 -0.015139 3.020563 5.282261 -0.078947 1.750896 16.878370 -0.263784 3.325093 -4.461238 -1.111312 2.174643 6.221212 1.065596 -9.901891 -11.585569 -7.832435 -56.142000 -71.898164 81.378808 -2.063580 3.324818 -26.733180 -4.496198 3.488367 0.583758 21.162460 -4.004763 1.557729 61.211334 -74.539177 -84.056597 1.036879 9.074360 11.352782 -4.365425 -73.641263 -2.995447 -122.592808 83.011008 -121.039643 -2.332114 -14.627810 -0.067499 -0.324654 0.757471 -0.156606 -14.669235 -77.000558 27.912458 104.839684 77.974663 100.923679 -16.119586 -19.965300 -0.496996 -0.268498 -1.157047 -0.148656
-35.870061 50.646901 5.058163 166.089288 -6.826379 -0.203579 3.389958 5.471404 0.713355 0.116615 0.205324 -0.008325 0.230491 0.393179 -0.012206 3.014704 5.270330 -0.080751 1.758229 16.895573 -0.256343 3.339245 -4.421143 -1.097524 2.162317 6.234174 1.066200 -9.890415 -11.584425 -7.819790 -56.122770 -71.904964 81.369500 -2.063727 3.319677 -26.759468 -4.494471 3.492778 0.590165 21.172483 -3.995556 1.562619 61.250651 -74.541352 -84.093141 1.026566 9.057096 11.341286 -4.351531 -73.640668 -3.001922 -122.591064 83.018690 -121.034150 -2.337230 -14.631596 -0.081062 -0.319488 0.766484 -0.150255 -14.723333 -76.991954 27.949970 104.803885 77.956577 100.887058 -16.095008 -19.934929 -0.507911 -0.286945 -1.164581 -0.157536
-35.869700 50.645036 5.061939 166.051038 -6.830163 -0.202727 3.423684 5.469400 0.716025 0.104257 0.190033 -0.009139 0.228706 0.390535 -0.013765 3.028795 5.285873 -0.077371 1.757027 16.899907 -0.250204 3.367529 -4.339496 -1.073032 2.142417 6.233212 1.066361 -9.870942 -11.578824 -7.818272 -56.173512 -71.909941 81.414923 -2.054766 3.324822 -26.770085 -4.524181 3.460591 0.609376 21.193405 -3.990091 1.574939 61.230450 -74.519197 -84.060338 1.008527 9.038235 11.325475 -4.358973 -73.640822 -2.957556 -122.551769 83.031562 -120.997800 -2.346874 -14.621399 -0.097078 -0.314261 0.768145 -0.141597 -14.743742 -76.983180 27.991546 104.783667 77.945173 100.865098 -16.056126 -19.908899 -0.513396 -0.294636 -1.168392 -0.163577
